Results
version=1
nRows=4
nColumns=213
inDegrees=yes
endheader
time	platform_rx	platform_ry	platform_rz	platform_ty	pelvis_tilt	pelvis_list	pelvis_rotation	pelvis_tx	pelvis_ty	pelvis_tz	hip_flexion_r	hip_adduction_r	hip_rotation_r	knee_angle_r	knee_angle_r_beta	ankle_angle_r	subtalar_angle_r	mtp_angle_r	hip_flexion_l	hip_adduction_l	hip_rotation_l	knee_angle_l	knee_angle_l_beta	ankle_angle_l	subtalar_angle_l	mtp_angle_l	lumbar_extension	lumbar_bending	lumbar_rotation	arm_flex_r	arm_add_r	arm_rot_r	elbow_flex_r	pro_sup_r	wrist_flex_r	wrist_dev_r	arm_flex_l	arm_add_l	arm_rot_l	elbow_flex_l	pro_sup_l	wrist_flex_l	wrist_dev_l	platform_rx_u	platform_ry_u	platform_rz_u	platform_ty_u	pelvis_tilt_u	pelvis_list_u	pelvis_rotation_u	pelvis_tx_u	pelvis_ty_u	pelvis_tz_u	hip_flexion_r_u	hip_adduction_r_u	hip_rotation_r_u	knee_angle_r_u	knee_angle_r_beta_u	ankle_angle_r_u	subtalar_angle_r_u	mtp_angle_r_u	hip_flexion_l_u	hip_adduction_l_u	hip_rotation_l_u	knee_angle_l_u	knee_angle_l_beta_u	ankle_angle_l_u	subtalar_angle_l_u	mtp_angle_l_u	lumbar_extension_u	lumbar_bending_u	lumbar_rotation_u	arm_flex_r_u	arm_add_r_u	arm_rot_r_u	elbow_flex_r_u	pro_sup_r_u	wrist_flex_r_u	wrist_dev_r_u	arm_flex_l_u	arm_add_l_u	arm_rot_l_u	elbow_flex_l_u	pro_sup_l_u	wrist_flex_l_u	wrist_dev_l_u	addbrev_r.activation	addlong_r.activation	addlong_r.fiber_length	addmagDist_r.activation	addmagIsch_r.activation	addmagIsch_r.fiber_length	addmagMid_r.activation	addmagProx_r.activation	bflh_r.activation	bflh_r.fiber_length	bfsh_r.activation	edl_r.activation	edl_r.fiber_length	ehl_r.activation	ehl_r.fiber_length	fdl_r.activation	fdl_r.fiber_length	fhl_r.activation	fhl_r.fiber_length	gaslat_r.activation	gaslat_r.fiber_length	gasmed_r.activation	gasmed_r.fiber_length	glmax1_r.activation	glmax2_r.activation	glmax3_r.activation	glmed1_r.activation	glmed2_r.activation	glmed3_r.activation	glmin1_r.activation	glmin2_r.activation	glmin3_r.activation	glmin3_r.fiber_length	grac_r.activation	iliacus_r.activation	perbrev_r.activation	perbrev_r.fiber_length	perlong_r.activation	perlong_r.fiber_length	piri_r.activation	piri_r.fiber_length	psoas_r.activation	recfem_r.activation	recfem_r.fiber_length	sart_r.activation	semimem_r.activation	semimem_r.fiber_length	semiten_r.activation	semiten_r.fiber_length	soleus_r.activation	soleus_r.fiber_length	tfl_r.activation	tfl_r.fiber_length	tibant_r.activation	tibant_r.fiber_length	tibpost_r.activation	tibpost_r.fiber_length	vasint_r.activation	vasint_r.fiber_length	vaslat_r.activation	vaslat_r.fiber_length	vasmed_r.activation	vasmed_r.fiber_length	addbrev_l.activation	addlong_l.activation	addlong_l.fiber_length	addmagDist_l.activation	addmagIsch_l.activation	addmagIsch_l.fiber_length	addmagMid_l.activation	addmagProx_l.activation	bflh_l.activation	bflh_l.fiber_length	bfsh_l.activation	edl_l.activation	edl_l.fiber_length	ehl_l.activation	ehl_l.fiber_length	fdl_l.activation	fdl_l.fiber_length	fhl_l.activation	fhl_l.fiber_length	gaslat_l.activation	gaslat_l.fiber_length	gasmed_l.activation	gasmed_l.fiber_length	glmax1_l.activation	glmax2_l.activation	glmax3_l.activation	glmed1_l.activation	glmed2_l.activation	glmed3_l.activation	glmin1_l.activation	glmin2_l.activation	glmin3_l.activation	glmin3_l.fiber_length	grac_l.activation	iliacus_l.activation	perbrev_l.activation	perbrev_l.fiber_length	perlong_l.activation	perlong_l.fiber_length	piri_l.activation	piri_l.fiber_length	psoas_l.activation	recfem_l.activation	recfem_l.fiber_length	sart_l.activation	semimem_l.activation	semimem_l.fiber_length	semiten_l.activation	semiten_l.fiber_length	soleus_l.activation	soleus_l.fiber_length	tfl_l.activation	tfl_l.fiber_length	tibant_l.activation	tibant_l.fiber_length	tibpost_l.activation	tibpost_l.fiber_length	vasint_l.activation	vasint_l.fiber_length	vaslat_l.activation	vaslat_l.fiber_length	vasmed_l.activation	vasmed_l.fiber_length
      0.00603226	     20.00000000	     -0.00000000	     -0.00000000	      0.25000000	    -27.61842000	     -0.00000006	     -0.00000001	     -0.03591373	      0.54268222	     -0.00000000	    103.51305336	    -18.09409276	      0.57661323	    105.93878279	    105.93878279	     27.67671485	     -0.00000000	      0.00000000	    103.51305370	    -18.09408939	      0.57661339	    105.93878478	    105.93878478	     27.67671497	     -0.00000000	      0.00000000	     -0.61120717	      0.00000007	      0.00000000	     90.07718433	     -0.00629956	     89.82926969	      0.16811802	      0.15345094	     -0.00000000	      0.00000000	     90.07723969	     -0.00629659	     89.82156989	      0.16811542	      0.15345139	     -0.00000000	      0.00000000	     -0.00000000	     -0.00000000	     -0.00000000	     -0.00000000	    160.11428510	     -0.00001917	     -0.00000279	      0.02788487	      0.22689204	     -0.00000003	   -162.26916087	    -10.25761190	     32.45466887	    -24.11768986	    -24.11768986	  -1066.60624196	     -0.00000000	      0.00000000	   -162.26913960	    -10.25760395	     32.45471474	    -24.11768495	    -24.11768495	  -1066.60624955	      0.00000000	      0.00000000	   -201.97090128	      0.00002430	      0.00000078	     45.12705284	     -2.07344745	     -1.38305497	      5.80210885	      0.97003580	      0.00000000	      0.00000000	     45.12669348	     -2.07319023	     -1.38309247	      5.80124511	      0.97018311	     -0.00000000	      0.00000000	      0.01000000	      0.01000000	      0.10242254	      0.01000000	      0.01000000	      0.22457424	      0.01000000	      0.01000000	      0.01000000	      0.12248262	      0.01000000	      0.01000000	      0.05167632	      0.01000000	      0.05921291	      0.01000000	      0.04765616	      0.01000000	      0.05634790	      0.01000000	      0.05046737	      0.01000000	      0.03720126	      0.01000000	      0.01000000	      0.01000000	      0.01000000	      0.01000000	      0.01000000	      0.01000000	      0.01000000	      0.01000000	      0.04411770	      0.01000000	      0.01000000	      0.01000000	      0.05076596	      0.01000000	      0.05750151	      0.01000000	      0.03309800	      0.01000000	      0.01000000	      0.05097504	      0.01000000	      0.01000000	      0.07749273	      0.01000000	      0.22929860	      0.01000000	      0.06098122	      0.01000000	      0.02401564	      0.01000000	      0.04549325	      0.01000000	      0.04208264	      0.01000000	      0.13910535	      0.01000000	      0.13556340	      0.01000000	      0.13287263	      0.01000000	      0.01000000	      0.10242254	      0.01000000	      0.01000000	      0.22457424	      0.01000000	      0.01000000	      0.01000000	      0.12248262	      0.01000000	      0.01000000	      0.05167632	      0.01000000	      0.05921291	      0.01000000	      0.04765616	      0.01000000	      0.05634790	      0.01000000	      0.05046737	      0.01000000	      0.03720125	      0.01000000	      0.01000000	      0.01000000	      0.01000000	      0.01000000	      0.01000000	      0.01000000	      0.01000000	      0.01000000	      0.04411770	      0.01000000	      0.01000000	      0.01000000	      0.05076596	      0.01000000	      0.05750151	      0.01000000	      0.03309800	      0.01000000	      0.01000000	      0.05097505	      0.01000000	      0.01000000	      0.07749273	      0.01000000	      0.22929860	      0.01000000	      0.06098122	      0.01000000	      0.02401564	      0.01000000	      0.04549325	      0.01000000	      0.04208264	      0.01000000	      0.13910535	      0.01000000	      0.13556340	      0.01000000	      0.13287263
      0.00668197	     20.00000000	     -0.00000000	     -0.00000000	      0.25000000	    -27.50885703	     -0.00000007	     -0.00000001	     -0.03589474	      0.54283768	     -0.00000000	    103.40184453	    -18.10111012	      0.59863030	    105.92174951	    105.92174951	     26.95068456	     -0.00000000	      0.00000000	    103.40184488	    -18.10110675	      0.59863049	    105.92175151	    105.92175151	     26.95068468	     -0.00000000	      0.00000000	     -0.74941254	      0.00000009	      0.00000000	     90.10807034	     -0.00771922	     89.82832207	      0.17209070	      0.15411893	     -0.00000000	      0.00000000	     90.10812546	     -0.00771608	     89.82062224	      0.17208750	      0.15411947	     -0.00000000	      0.00000000	     -0.00000000	     -0.00000000	     -0.00000000	     -0.00000000	    177.14348353	     -0.00002124	     -0.00000301	      0.03053992	      0.25167321	     -0.00000003	   -180.07682692	    -11.34407815	     35.29306036	    -28.38627495	    -28.38627495	  -1167.82458593	     -0.00000000	      0.00000000	   -180.07680333	    -11.34406935	     35.29311118	    -28.38626949	    -28.38626949	  -1167.82459436	      0.00000000	      0.00000000	   -223.45414085	      0.00002690	      0.00000089	     49.94782740	     -2.29675821	     -1.53421489	      6.42717099	      1.08712530	      0.00000000	      0.00000000	     49.94742908	     -2.29647191	     -1.53425666	      6.42621025	      1.08728934	     -0.00000000	      0.00000000	      0.01000000	      0.01000000	      0.10239133	      0.01000000	      0.01000000	      0.22442969	      0.01000000	      0.01000000	      0.01000000	      0.12245162	      0.01000000	      0.01000000	      0.05207676	      0.01000000	      0.05966448	      0.01000000	      0.04764099	      0.01000000	      0.05628473	      0.01000000	      0.05035137	      0.01000000	      0.03710635	      0.01000000	      0.01000000	      0.01000000	      0.01000000	      0.01000000	      0.01000000	      0.01000000	      0.01000000	      0.01000000	      0.04409030	      0.01000000	      0.01000000	      0.01000000	      0.05072968	      0.01000000	      0.05744755	      0.01000000	      0.03307456	      0.01000000	      0.01000000	      0.05101266	      0.01000000	      0.01000000	      0.07746838	      0.01000000	      0.22925195	      0.01000000	      0.06074526	      0.01000000	      0.02401564	      0.01000000	      0.04598736	      0.01000000	      0.04205048	      0.01000000	      0.13910060	      0.01000000	      0.13555883	      0.01000000	      0.13286847	      0.01000000	      0.01000000	      0.10239133	      0.01000000	      0.01000000	      0.22442969	      0.01000000	      0.01000000	      0.01000000	      0.12245162	      0.01000000	      0.01000000	      0.05207676	      0.01000000	      0.05966448	      0.01000000	      0.04764099	      0.01000000	      0.05628473	      0.01000000	      0.05035137	      0.01000000	      0.03710635	      0.01000000	      0.01000000	      0.01000000	      0.01000000	      0.01000000	      0.01000000	      0.01000000	      0.01000000	      0.01000000	      0.04409030	      0.01000000	      0.01000000	      0.01000000	      0.05072968	      0.01000000	      0.05744755	      0.01000000	      0.03307456	      0.01000000	      0.01000000	      0.05101266	      0.01000000	      0.01000000	      0.07746838	      0.01000000	      0.22925195	      0.01000000	      0.06074526	      0.01000000	      0.02401564	      0.01000000	      0.04598736	      0.01000000	      0.04205048	      0.01000000	      0.13910060	      0.01000000	      0.13555883	      0.01000000	      0.13286847
      0.00689470	     20.00000000	     -0.00000000	     -0.00000000	      0.25000000	    -27.47057984	     -0.00000008	     -0.00000001	     -0.03588816	      0.54289209	     -0.00000000	    103.36291293	    -18.10356102	      0.60623355	    105.91555324	    105.91555324	     26.69879850	     -0.00000000	      0.00000000	    103.36291329	    -18.10355765	      0.60623375	    105.91555524	    105.91555524	     26.69879861	     -0.00000000	      0.00000000	     -0.79769655	      0.00000010	      0.00000000	     90.11886385	     -0.00821562	     89.82799039	      0.17347980	      0.15435440	     -0.00000000	      0.00000000	     90.11891889	     -0.00821241	     89.82029055	      0.17347640	      0.15435498	     -0.00000000	      0.00000000	     -0.00000000	     -0.00000000	     -0.00000000	     -0.00000000	    182.72042331	     -0.00002194	     -0.00000311	      0.03139238	      0.25983005	     -0.00000004	   -185.94188577	    -11.69829193	     36.18634060	    -29.87628502	    -29.87628502	  -1200.24422768	     -0.00000000	      0.00000000	   -185.94186140	    -11.69828291	     36.18639308	    -29.87627936	    -29.87627936	  -1200.24423640	      0.00000000	      0.00000000	   -230.48921821	      0.00002776	      0.00000096	     51.52783472	     -2.37012714	     -1.58410371	      6.63255438	      1.12681695	      0.00000000	      0.00000000	     51.52742356	     -2.36983115	     -1.58414690	      6.63156137	      1.12698656	     -0.00000000	      0.00000000	      0.01000000	      0.01000000	      0.10238031	      0.01000000	      0.01000000	      0.22446156	      0.01000000	      0.01000000	      0.01000000	      0.12244067	      0.01000000	      0.01000000	      0.05221723	      0.01000000	      0.05982288	      0.01000000	      0.04763530	      0.01000000	      0.05626168	      0.01000000	      0.05031341	      0.01000000	      0.03707530	      0.01000000	      0.01000000	      0.01000000	      0.01000000	      0.01000000	      0.01000000	      0.01000000	      0.01000000	      0.01000000	      0.04408071	      0.01000000	      0.01000000	      0.01000000	      0.05071670	      0.01000000	      0.05742804	      0.01000000	      0.03306629	      0.01000000	      0.01000000	      0.05102636	      0.01000000	      0.01000000	      0.07745961	      0.01000000	      0.22923561	      0.01000000	      0.06066277	      0.01000000	      0.02401564	      0.01000000	      0.04616001	      0.01000000	      0.04203857	      0.01000000	      0.13909886	      0.01000000	      0.13555717	      0.01000000	      0.13286695	      0.01000000	      0.01000000	      0.10238031	      0.01000000	      0.01000000	      0.22446156	      0.01000000	      0.01000000	      0.01000000	      0.12244066	      0.01000000	      0.01000000	      0.05221723	      0.01000000	      0.05982288	      0.01000000	      0.04763530	      0.01000000	      0.05626168	      0.01000000	      0.05031341	      0.01000000	      0.03707529	      0.01000000	      0.01000000	      0.01000000	      0.01000000	      0.01000000	      0.01000000	      0.01000000	      0.01000000	      0.01000000	      0.04408071	      0.01000000	      0.01000000	      0.01000000	      0.05071670	      0.01000000	      0.05742804	      0.01000000	      0.03306629	      0.01000000	      0.01000000	      0.05102636	      0.01000000	      0.01000000	      0.07745961	      0.01000000	      0.22923560	      0.01000000	      0.06066277	      0.01000000	      0.02401564	      0.01000000	      0.04616001	      0.01000000	      0.04203857	      0.01000000	      0.13909886	      0.01000000	      0.13555717	      0.01000000	      0.13286695
      0.00731373	     20.00000000	     -0.00000000	     -0.00000000	      0.25000000	    -27.39171685	     -0.00000009	     -0.00000001	     -0.03587466	      0.54300433	     -0.00000000	    103.28257367	    -18.10860909	      0.62175609	    105.90239682	    105.90239682	     26.18265684	     -0.00000000	      0.00000000	    103.28257404	    -18.10860571	      0.62175632	    105.90239882	    105.90239882	     26.18265695	     -0.00000000	      0.00000000	     -0.89717681	      0.00000011	      0.00000000	     90.14110691	     -0.00923906	     89.82730595	      0.17634383	      0.15484325	     -0.00000000	      0.00000000	     90.14116176	     -0.00923573	     89.81960609	      0.17634000	      0.15484390	     -0.00000000	      0.00000000	     -0.00000000	     -0.00000000	     -0.00000000	     -0.00000000	    193.68318268	     -0.00002330	     -0.00000326	      0.03303800	      0.27592176	     -0.00000004	   -197.51870644	    -12.39549915	     37.88884865	    -32.94899795	    -32.94899795	  -1263.01417816	     -0.00000000	      0.00000000	   -197.51868055	    -12.39548964	     37.88890437	    -32.94899192	    -32.94899192	  -1263.01418743	      0.00000000	      0.00000000	   -244.31796993	      0.00002945	      0.00000106	     54.63604881	     -2.51472495	     -1.68275469	      7.03735770	      1.20684214	      0.00000000	      0.00000000	     54.63561233	     -2.51440969	     -1.68280071	      7.03630055	      1.20702286	     -0.00000000	      0.00000000	      0.01000000	      0.01000000	      0.10235745	      0.01000000	      0.01000000	      0.22443864	      0.01000000	      0.01000000	      0.01000000	      0.12241794	      0.01000000	      0.01000000	      0.05250801	      0.01000000	      0.06014980	      0.01000000	      0.04762296	      0.01000000	      0.05621292	      0.01000000	      0.05023867	      0.01000000	      0.03701416	      0.01000000	      0.01000000	      0.01000000	      0.01000000	      0.01000000	      0.01000000	      0.01000000	      0.01000000	      0.01000000	      0.04406094	      0.01000000	      0.01000000	      0.01000000	      0.05068955	      0.01000000	      0.05738701	      0.01000000	      0.03304917	      0.01000000	      0.01000000	      0.05105526	      0.01000000	      0.01000000	      0.07744119	      0.01000000	      0.22920190	      0.01000000	      0.06049286	      0.01000000	      0.02401564	      0.01000000	      0.04651547	      0.01000000	      0.04201307	      0.01000000	      0.13909517	      0.01000000	      0.13555361	      0.01000000	      0.13286372	      0.01000000	      0.01000000	      0.10235744	      0.01000000	      0.01000000	      0.22443864	      0.01000000	      0.01000000	      0.01000000	      0.12241794	      0.01000000	      0.01000000	      0.05250801	      0.01000000	      0.06014980	      0.01000000	      0.04762296	      0.01000000	      0.05621292	      0.01000000	      0.05023867	      0.01000000	      0.03701416	      0.01000000	      0.01000000	      0.01000000	      0.01000000	      0.01000000	      0.01000000	      0.01000000	      0.01000000	      0.01000000	      0.04406094	      0.01000000	      0.01000000	      0.01000000	      0.05068955	      0.01000000	      0.05738701	      0.01000000	      0.03304917	      0.01000000	      0.01000000	      0.05105526	      0.01000000	      0.01000000	      0.07744119	      0.01000000	      0.22920190	      0.01000000	      0.06049286	      0.01000000	      0.02401564	      0.01000000	      0.04651547	      0.01000000	      0.04201307	      0.01000000	      0.13909517	      0.01000000	      0.13555362	      0.01000000	      0.13286372
